<svg width="26" height="25" viewBox="0 0 26 25" fill="none" xmlns="http://www.w3.org/2000/svg">
<path d="M4.08122 18.3333H1.77516C1.56974 18.3333 1.37272 18.2535 1.22742 18.1114C1.08212 17.9694 1.00043 17.7767 1.00031 17.5758V4.42422C1.00043 4.22328 1.08212 4.03062 1.22742 3.88858C1.37272 3.74654 1.56974 3.66675 1.77516 3.66675L14.8921 3.66675C15.0975 3.66675 15.2946 3.74654 15.4399 3.88858C15.5852 4.03062 15.6668 4.22328 15.667 4.42422V9.57542C15.667 9.77643 15.7486 9.96921 15.8939 10.1114C16.0392 10.2535 16.2363 10.3333 16.4418 10.3333H23.667" stroke="#0C0C0D" stroke-width="1.5" stroke-linecap="round" stroke-linejoin="round"/>
<path d="M15.667 18.3333H10.3336" stroke="#0C0C0D" stroke-width="1.5" stroke-linecap="round" stroke-linejoin="round"/>
<path d="M25.0006 11.6665L25.0004 17.5578C25.0004 17.7634 24.9187 17.9606 24.7733 18.106C24.6279 18.2514 24.4307 18.3331 24.2251 18.3331H21.1738" stroke="#0C0C0D" stroke-width="1.5" stroke-linecap="round" stroke-linejoin="round"/>
<path d="M15.667 5L20.978 5C21.1167 4.99973 21.2531 5.0365 21.3739 5.10671C21.4947 5.17693 21.5956 5.27818 21.667 5.40058L25.0003 11.6666" stroke="#0C0C0D" stroke-width="1.5" stroke-linecap="round" stroke-linejoin="round"/>
<path d="M7.66697 20.9999C9.13973 20.9999 10.3336 19.8106 10.3336 18.3436C10.3336 16.8765 9.13973 15.6873 7.66697 15.6873C6.19421 15.6873 5.00031 16.8765 5.00031 18.3436C5.00031 19.8106 6.19421 20.9999 7.66697 20.9999Z" stroke="#0C0C0D" stroke-width="1.5" stroke-linecap="round" stroke-linejoin="round"/>
<path d="M18.3337 20.9999C19.8064 20.9999 21.0003 19.8106 21.0003 18.3436C21.0003 16.8765 19.8064 15.6873 18.3337 15.6873C16.8609 15.6873 15.667 16.8765 15.667 18.3436C15.667 19.8106 16.8609 20.9999 18.3337 20.9999Z" stroke="#0C0C0D" stroke-width="1.5" stroke-linecap="round" stroke-linejoin="round"/>
</svg>
