<svg width="24" height="24" viewBox="0 0 24 24" fill="none" xmlns="http://www.w3.org/2000/svg">
<path d="M5.00031 9.99345C5.08875 8.1071 5.86525 6.32874 7.16894 5.02681C8.47263 3.72488 10.2036 2.99916 12.0032 3C13.8028 3.00084 15.5332 3.72818 16.8357 5.03133C18.1383 6.33448 18.9133 8.11357 19.0002 10" stroke="#0C0C0D" stroke-width="1.5" stroke-linecap="round" stroke-linejoin="round"/>
<path d="M5.00031 15V17.9206C5.00031 18.4721 5.19977 19.001 5.55482 19.391C5.90988 19.7809 6.39143 20 6.89355 20H9.00031" stroke="#0C0C0D" stroke-width="1.5" stroke-linecap="round" stroke-linejoin="round"/>
<path d="M3.00024 11C3.00024 10.4477 3.44796 10 4.00024 10H6.00024V15H4.00024C3.44796 15 3.00024 14.5523 3.00024 14V11Z" stroke="#0C0C0D" stroke-width="1.5"/>
<rect x="9.00024" y="19" width="6" height="2" rx="1" stroke="#0C0C0D" stroke-width="1.5"/>
<path d="M18.0001 10H20.0001C20.5523 10 21.0001 10.4477 21.0001 11V14C21.0001 14.5523 20.5523 15 20.0001 15H18.0001V10Z" stroke="#0C0C0D" stroke-width="1.5"/>
</svg>
